<svg xmlns="http://www.w3.org/2000/svg" width="29" height="14" viewBox="0 0 29 14">
    <g fill="none" fill-rule="evenodd">
        <g fill="#000" fill-rule="nonzero">
            <g>
                <path d="M28.668 6.224h-.001L22.747.351c-.443-.44-1.16-.438-1.602.004-.44.442-.44 1.157.004 1.597l3.974 3.941H1.133C.507 5.894 0 6.4 0 7.024c0 .623.507 1.128 1.133 1.128h23.99l-3.974 3.942c-.443.44-.445 1.155-.003 1.597.44.442 1.158.443 1.602.004l5.919-5.871v-.001c.444-.442.443-1.159 0-1.599z" transform="translate(-1036 -1515) translate(1036 1515)"/>
            </g>
        </g>
    </g>
</svg>
