<svg xmlns="http://www.w3.org/2000/svg" width="66" height="67" viewBox="0 0 66 67">
    <g fill="none" fill-rule="evenodd">
        <g fill="#FFF" fill-rule="nonzero">
            <g>
                <path d="M33.153 0h-.108C14.821 0 0 14.774 0 32.94c0 7.414 2.54 14.613 7.185 20.411L2.377 64.5c-.396.915.036 1.975.937 2.352.324.143.684.18 1.026.125l17.63-3.087c3.53 1.274 7.24 1.92 10.985 1.902C51.179 65.791 66 51.018 66 32.851 66.036 14.738 51.323.018 33.153 0zM21.757 26h9.486c.966 0 1.757.9 1.757 2s-.79 2-1.757 2h-9.486C20.79 30 20 29.1 20 28s.79-2 1.757-2zm22.437 13H21.806C20.812 39 20 38.1 20 37s.813-2 1.806-2h22.388c.993 0 1.806.9 1.806 2s-.813 2-1.806 2z" transform="translate(-1710 -868) translate(1710 868)"/>
            </g>
        </g>
    </g>
</svg>
