<svg xmlns="http://www.w3.org/2000/svg" xmlns:xlink="http://www.w3.org/1999/xlink" width="18" height="18" viewBox="0 0 18 18">
    <defs>
        <path id="1uoakzprta" d="M0 0L18 0 18 18 0 18z"/>
    </defs>
    <g fill="none" fill-rule="evenodd">
        <g>
            <g transform="translate(-571 -2711) translate(571 2711)">
                <mask id="m2gs7oa03b" fill="#fff">
                    <use xlink:href="#1uoakzprta"/>
                </mask>
                <path fill="#000" d="M7.944 11.958l-.917-.916-1.97-1.972.916-.916 1.97 1.971 4.084-4.083.917.916-5 5zm9.383-1.477C17.66 10.039 18 9.59 18 9c0-.59-.34-1.039-.673-1.48-.189-.25-.375-.497-.43-.696-.058-.21-.019-.52.02-.828.067-.53.133-1.058-.148-1.538-.283-.483-.777-.681-1.27-.88-.281-.112-.561-.224-.707-.37-.146-.146-.258-.426-.37-.707-.199-.493-.397-.987-.88-1.27-.482-.283-1.009-.216-1.538-.15v.002c-.309.039-.619.078-.828.02-.2-.055-.446-.241-.695-.43C10.039.34 9.59 0 9 0c-.59 0-1.039.34-1.48.673-.25.189-.497.375-.696.43-.204.057-.517.017-.828-.022v.002c-.531-.067-1.059-.133-1.538.148-.483.283-.681.777-.88 1.27-.112.281-.224.561-.37.707-.146.146-.426.258-.707.37-.493.199-.987.397-1.27.88-.281.48-.215 1.007-.148 1.538.039.308.078.619.02.828-.055.2-.241.446-.43.695C.34 7.961 0 8.41 0 9c0 .59.34 1.039.673 1.48.189.25.375.497.43.696.058.21.019.52-.02.828-.067.53-.133 1.058.148 1.538.283.483.777.681 1.27.88.281.112.561.224.707.37.146.146.258.426.37.707l.11.268c.17.398.375.77.77 1.002l.042.024c.47.255.982.19 1.496.126v-.002c.308-.039.619-.078.828-.02.2.055.446.241.695.43.442.334.89.673 1.481.673.59 0 1.039-.34 1.48-.673.25-.189.497-.375.696-.43.204-.057.517-.017.828.022v-.002c.515.065 1.028.13 1.496-.124l.042-.024c.395-.231.6-.604.77-1.002l.11-.268c.112-.281.224-.561.37-.707.146-.146.426-.258.707-.37.493-.199.987-.397 1.27-.88.281-.48.215-1.007.148-1.538-.039-.308-.078-.619-.02-.828.055-.2.241-.446.43-.695z" mask="url(#m2gs7oa03b)"/>
            </g>
        </g>
    </g>
</svg>
