<?xml version="1.0" encoding="UTF-8"?>
<svg width="36px" height="36px" viewBox="0 0 36 36" version="1.1" xmlns="http://www.w3.org/2000/svg" xmlns:xlink="http://www.w3.org/1999/xlink">
    <!-- Generator: Sketch 59.1 (86144) - https://sketch.com -->
    <title>1 copy</title>
    <desc>Created with Sketch.</desc>
    <defs>
        <polygon id="path-1" points="0 0.0222 16.51176 0.0222 16.51176 27.5994 0 27.5994"></polygon>
    </defs>
    <g id="1-copy" stroke="none" stroke-width="1" fill="none" fill-rule="evenodd">
        <g id="Group" transform="translate(1.000000, 3.000000)">
            <g id="Group-3" transform="translate(0.000000, 0.300000)">
                <mask id="mask-2" fill="white">
                    <use xlink:href="#path-1"></use>
                </mask>
                <g id="Clip-2"></g>
                <path d="M10.02696,10.7994 C9.49416,11.4462 8.56536,11.7702 7.25256,11.7702 L5.58216,11.7702 L5.58216,3.801 L7.52376,3.801 C8.77176,3.801 9.63456,4.1214 10.11096,4.7562 C10.58616,5.3922 10.82616,6.3894 10.82616,7.7514 C10.82616,9.1362 10.55976,10.1526 10.02696,10.7994 L10.02696,10.7994 Z M12.69816,14.151 C13.97016,13.5846 14.85576,12.7518 15.35496,11.6514 C15.85296,10.5486 16.10376,9.1014 16.10376,7.3098 C16.10376,4.6302 15.35496,2.7474 13.85496,1.659 C12.35976,0.567 10.12296,0.0222 7.15056,0.0222 L-0.00024,0.0222 L-0.00024,27.5994 L5.58216,27.5994 L5.58216,15.1074 L7.62576,15.1074 L10.75776,27.5994 L16.51176,27.5994 L12.69816,14.151 Z" id="Fill-1" fill="#1A1A1A" mask="url(#mask-2)"></path>
            </g>
            <path d="M32.7859833,16.9961657 C32.0437078,15.7381233 31.0021081,14.4944721 29.6551497,13.2700095 L26.8465723,10.8198848 C25.9992919,10.0715354 25.3716769,9.3903456 24.9625201,8.77751461 C24.5533634,8.16588291 24.3469746,7.39354797 24.3469746,6.46530691 C24.3469746,5.80810265 24.5231896,5.252837 24.8792404,4.79591214 C25.2304635,4.34378439 25.7397972,4.1159216 26.401207,4.1159216 C27.2026231,4.1159216 27.7373029,4.46850928 28.0088671,5.17248539 C28.2852591,5.87646149 28.4457837,6.94142022 28.4916479,8.37095942 L33.3870454,7.65618982 C33.2494528,5.4315294 32.6942549,3.60263067 31.7262794,2.15989942 C30.753476,0.719566713 29.0275346,0 26.5400064,0 C24.1623109,0 22.3023978,0.605635316 20.9554393,1.81810523 C19.6084808,3.03537225 18.9350016,4.76233236 18.9350016,7.00977906 C18.9350016,8.5724381 19.2331188,9.87365457 19.8269392,10.9038343 C20.4195526,11.938811 21.2994207,12.9653929 22.4641294,13.9847791 L25.3378822,16.4684835 C26.3903444,17.3763368 27.1591728,18.2098349 27.6504023,18.9701771 C28.1428388,19.7305193 28.38785,20.6551625 28.38785,21.7429075 C28.38785,22.4001118 28.2393949,22.9409861 27.9400708,23.359534 C27.6455745,23.7768827 27.1676215,23.9867564 26.5050048,23.9867564 C25.6142742,23.9867564 24.9432089,23.5754041 24.5002575,22.7467031 C24.0560991,21.9180021 23.8110879,20.6323762 23.7652237,18.8826298 L18.9,19.7005373 C19.0146604,22.6291738 19.7110718,24.7890732 20.9904409,26.1850327 C21.7290956,26.9909474 22.6813808,27.5618036 23.8497103,27.9 L29.2918571,27.9 C29.7130834,27.7668802 30.1149984,27.5953834 30.4939813,27.3903069 C31.5766173,26.8002622 32.414242,25.9907497 33.0116833,24.9557729 C33.6055037,23.9255932 33.9,22.7503009 33.9,21.4346931 C33.9,19.7341171 33.5282588,18.2554075 32.7859833,16.9961657" id="Fill-38" fill="#1A1A1A"></path>
        </g>
    </g>
</svg>