<?xml version="1.0" encoding="UTF-8"?>
<svg width="32px" height="32px" viewBox="0 0 32 32" version="1.1" xmlns="http://www.w3.org/2000/svg" xmlns:xlink="http://www.w3.org/1999/xlink">
    <!-- Generator: Sketch 59.1 (86144) - https://sketch.com -->
    <title>play-button (1)</title>
    <desc>Created with Sketch.</desc>
    <g id="Page-1" stroke="none" stroke-width="1" fill="none" fill-rule="evenodd">
        <g id="work_4_H/WH" transform="translate(-718.000000, -1754.000000)" fill="#FFFFFF" fill-rule="nonzero">
            <g id="play-button-(1)" transform="translate(718.000000, 1754.000000)">
                <path d="M16,0 C7.1770625,0 0,7.17775 0,16 C0,24.82225 7.1770625,32 16,32 C24.8229375,32 32,24.82225 32,16 C32,7.17775 24.8229375,0 16,0 Z M22.3606875,16.5605625 L13.027375,22.5605625 C12.918,22.6315 12.7916875,22.6666875 12.6666875,22.6666875 C12.5573125,22.6666875 12.446625,22.6393125 12.3476875,22.5853125 C12.1328125,22.468125 12,22.244125 12,22 L12,10 C12,9.755875 12.1328125,9.531875 12.3476875,9.4146875 C12.558625,9.2988125 12.8229375,9.3059375 13.027375,9.4394375 L22.3606875,15.4394375 C22.5508125,15.5618125 22.6666875,15.7734375 22.6666875,16 C22.6666875,16.2265625 22.5508125,16.438125 22.3606875,16.5605625 Z" id="Shape"></path>
            </g>
        </g>
    </g>
</svg>