<svg xmlns="http://www.w3.org/2000/svg" width="39" height="39" viewBox="0 0 39 39">
    <g fill="none" fill-rule="evenodd">
        <g fill="#FFF" fill-rule="nonzero">
            <g transform="translate(-574 -1342) translate(574 1342)">
                <path d="M20 9c-5.526 0-10 4.479-10 10 0 5.526 4.479 10 10 10 5.526 0 10-4.479 10-10 0-5.526-4.479-10-10-10zm0 16.49c-3.587 0-6.49-2.904-6.49-6.49 0-3.586 2.904-6.49 6.49-6.49 3.586 0 6.49 2.904 6.49 6.49.002 3.586-2.903 6.49-6.49 6.49z"/>
                <path d="M27.54.123c-3.587-.168-12.474-.16-16.066 0-3.155.147-5.939.91-8.183 3.154C-.459 7.027.02 12.08.02 19.492c0 7.586-.423 12.522 3.271 16.216 3.765 3.763 8.892 3.27 16.216 3.27 7.514 0 10.107.006 12.764-1.023 3.613-1.402 6.34-4.631 6.606-10.43.169-3.59.16-12.476 0-16.067C38.555 4.612 34.88.46 27.54.123zm5.68 33.103c-2.458 2.459-5.87 2.24-13.76 2.24-8.125 0-11.383.12-13.76-2.264-2.739-2.725-2.243-7.101-2.243-13.736 0-8.978-.922-15.444 8.089-15.905 2.07-.073 2.68-.098 7.891-.098l.073.05c8.66 0 15.454-.908 15.862 8.101.092 2.056.114 2.673.114 7.877-.002 8.03.15 11.308-2.266 13.735z"/>
                <circle cx="30" cy="9" r="2"/>
            </g>
        </g>
    </g>
</svg>
