<svg xmlns="http://www.w3.org/2000/svg" xmlns:xlink="http://www.w3.org/1999/xlink" width="307" height="38" viewBox="0 0 307 38">
    <defs>
        <path id="s531esujja" d="M0 0.03L22.016 0.03 22.016 36.799 0 36.799z"/>
        <path id="r6owf7tl7c" d="M0.008 0.356L11.889 0.356 11.889 9.6 0.008 9.6z"/>
        <path id="2wln9rknye" d="M0 37.2L306.8 37.2 306.8 0 0 0z"/>
    </defs>
    <g fill="none" fill-rule="evenodd">
        <g>
            <g transform="translate(-220 -905) translate(220 905)">
                <g transform="translate(0 .4)">
                    <mask id="8nv4euflhb" fill="#fff">
                        <use xlink:href="#s531esujja"/>
                    </mask>
                    <path fill="#FFF" d="M13.37 14.4c-.711.862-1.95 1.294-3.7 1.294H7.443V5.068h2.589c1.664 0 2.814.427 3.45 1.274.633.848.953 2.177.953 3.993 0 1.847-.355 3.202-1.066 4.064zm3.56 4.468c1.697-.755 2.878-1.866 3.543-3.333.664-1.47.999-3.4.999-5.789 0-3.572-.999-6.083-2.999-7.534C16.48.756 13.497.03 9.534.03H0V36.8h7.443V20.142h2.725L14.344 36.8h7.672L16.93 18.868z" mask="url(#8nv4euflhb)"/>
                </g>
                <path fill="#FFF" d="M33.881 30.557l2.159-14.859 2.206 14.86H33.88zM40.137 6.4h-8.24L26 37.2h6.864l.343-1.99h5.758l.331 1.99H46L40.137 6.4zM25.386 0L24.8 3.2h7l.525-3.2h-6.94zm21.228 0h-6.788l.51 3.2H47.2L46.614 0z"/>
                <g transform="translate(54.4 27.6)">
                    <mask id="1a0a1jmgad" fill="#fff">
                        <use xlink:href="#r6owf7tl7c"/>
                    </mask>
                    <path fill="#FFF" d="M10.108 0.356L1.798 0.356 0.008 9.6 11.889 9.6z" mask="url(#1a0a1jmgad)"/>
                </g>
                <path fill="#FFF" d="M66.769 0L60.781 0 62.658 12.51 58.277 12.51 60.109 0 54.067 0 49.2 25.2 56.197 25.2 57.601 17.135 63.381 17.135 64.734 25.2 71.6 25.2zM91.335 34.083c-1.291-1.92-3.59-2.883-6.894-2.883-3.153 0-5.623.813-7.412 2.432-1.054.949-1.796 2.142-2.229 3.568h7.842c.426-.335.965-.503 1.616-.503.635 0 1.143.168 1.53.503H92.8c-.362-1.157-.85-2.198-1.465-3.117M93.61 0H87.03c.077.627.129 1.335.153 2.13l6.532-.954C93.692.775 93.655.382 93.61 0m-.695 13.692c-.99-1.692-2.384-3.353-4.18-4.994l-3.74-3.281c-1.128-1.005-1.964-1.916-2.51-2.737-.49-.723-.761-1.62-.811-2.68H74.45c-.004.101-.004.204-.004.31 0 2.095.392 3.839 1.189 5.22.792 1.38 1.96 2.755 3.511 4.126l3.837 3.328c1.4 1.213 2.43 2.333 3.083 3.348.654 1.019.98 2.256.98 3.72 0 .88-.2 1.599-.592 2.165-.397.56-1.036.842-1.92.842-1.183 0-2.076-.556-2.668-1.663-.597-1.11-.924-2.838-.985-5.176L74.4 17.314c.154 3.92 1.083 6.813 2.787 8.684 1.704 1.87 4.262 2.802 7.672 2.802 1.887 0 3.551-.392 5-1.183 1.443-.789 2.562-1.873 3.352-3.26.792-1.38 1.189-2.955 1.189-4.718 0-2.278-.494-4.261-1.485-5.947M95.6.4L95.6 5.945 101.481 5.945 101.481 37.2 109.005 37.2 109.005 5.945 114.8 5.945 114.8.4zM131.42 30L122.99 30 121.6 37.2 132.8 37.2zM133.292 0L127.371 0 129.456 14.022 125.081 14.022 127.12 0 121.143 0 116 26.8 123 26.8 124.399 18.674 130.184 18.674 131.535 26.8 138.4 26.8zM164.83 0c0 .005-.004.005-.004.01-.39.543-1.024.816-1.9.816-.846 0-1.54-.277-2.083-.826H153.6c.46 1.498 1.134 2.728 2.026 3.677 1.692 1.814 4.23 2.723 7.614 2.723 1.875 0 3.532-.385 4.965-1.15 1.433-.767 2.543-1.82 3.334-3.164.38-.654.668-1.344.861-2.086h-7.57zM171.367 32.557c-.993-1.671-2.39-3.32-4.191-4.947l-3.757-3.25c-1.13-.993-1.97-1.897-2.518-2.71-.547-.812-.824-1.837-.824-3.07 0-.873.235-1.608.711-2.215.472-.6 1.153-.904 2.039-.904 1.068 0 1.785.47 2.15 1.404.367.934.582 2.348.643 4.245l6.546-.949c-.184-2.954-.922-5.38-2.22-7.294-1.297-1.912-3.61-2.867-6.935-2.867-3.178 0-5.666.804-7.468 2.413-1.8 1.61-2.701 3.906-2.701 6.89 0 2.074.399 3.801 1.191 5.168.794 1.372 1.97 2.737 3.526 4.088l3.85 3.296c1.401 1.207 2.43 2.313 3.085 3.322.389.6.665 1.272.824 2.023h7.482c-.153-1.741-.63-3.29-1.433-4.643m-12.068 2.504l-6.499 1.085c.016.358.037.712.061 1.054h6.593c-.083-.645-.134-1.358-.155-2.14M174 .4L174 5.945 179.887 5.945 179.887 37.2 187.409 37.2 187.409 5.945 193.2 5.945 193.2.4z"/>
                <mask id="2t3ise6tbf" fill="#fff">
                    <use xlink:href="#2wln9rknye"/>
                </mask>
                <path fill="#FFF" d="M209.833 37.2h7.367v-4h-7.367v4zM196 37.2h7.321v-4H196v4zM209.833 0v18.461c0 1.765-.212 3.151-.636 4.156-.42 1-1.294 1.504-2.622 1.504-1.324 0-2.2-.503-2.623-1.504-.419-1.005-.63-2.391-.63-4.156V0H196v17.414c0 2.74.312 4.99.95 6.754.63 1.765 1.717 3.11 3.253 4.04 1.536.929 3.663 1.392 6.372 1.392 2.713 0 4.845-.463 6.395-1.391 1.556-.93 2.648-2.276 3.279-4.041.632-1.765.951-4.015.951-6.754V0h-7.367zM242.482 15.705c-.745-1.665-1.997-2.9-3.75-3.702-1.751-.803-4.177-1.203-7.287-1.203H222.4v26.4h7.492V16.065h1.598c1.313 0 2.268.178 2.881.524.608.35 1.012.877 1.21 1.593.2.711.296 1.763.296 3.155V36.56c0 .223 0 .436-.005.639h7.693c.025-.466.035-.954.035-1.457V22.338c0-2.76-.372-4.968-1.118-6.633M235.555 0c-.2.637-.571 1.13-1.117 1.478-.625.403-1.595.602-2.902.602h-1.644V0H222.4v7.2h9.23c3.041 0 5.436-.408 7.174-1.224 1.736-.816 2.966-2.065 3.695-3.742.294-.662.522-1.402.701-2.234h-7.645zM248.8 26L256.4 26 256.4 0 248.8 0zM248.8 37.2L256.4 37.2 256.4 30 248.8 30zM275.208 0v1.721c0 1.522-.217 2.717-.657 3.585-.435.868-1.289 1.303-2.552 1.303-1.298 0-2.157-.425-2.576-1.277-.423-.854-.63-2.058-.63-3.61V0H261.2c.02 3.916.843 6.884 2.485 8.916C265.342 10.974 268.11 12 272 12c3.855 0 6.624-1.026 8.295-3.084 1.657-2.038 2.492-5.01 2.506-8.916h-7.592zM280.294 18.22c-1.672-2.015-4.44-3.02-8.294-3.02-3.89 0-6.658 1-8.315 3-1.661 1.994-2.485 4.98-2.485 8.944V37.2h7.592V25.326c0-1.511.218-2.684.651-3.517.44-.832 1.289-1.248 2.557-1.248 1.263 0 2.117.416 2.552 1.248.438.833.656 2.006.656 3.517V37.2h7.592V27.144c0-3.934-.833-6.908-2.506-8.923M305.315 22.662c-.99-1.678-2.379-3.336-4.175-4.969l-3.745-3.266c-1.13-.998-1.966-1.907-2.512-2.724-.545-.815-.82-1.845-.82-3.083 0-.876.235-1.616.71-2.225.468-.603 1.147-.907 2.029-.907 1.068 0 1.781.47 2.143 1.409.369.938.583 2.358.644 4.264l6.527-.953c-.183-2.966-.924-5.404-2.214-7.328C302.605.96 300.303 0 296.987 0c-3.17 0-5.65.808-7.446 2.424-1.796 1.623-2.694 3.926-2.694 6.922 0 2.084.397 3.819 1.189 5.192.79 1.38 1.963 2.75 3.516 4.108l3.832 3.312c1.403 1.21 2.428 2.322 3.083 3.336.657 1.013.983 2.246.983 3.697 0 .876-.197 1.597-.597 2.155-.392.557-1.03.836-1.913.836-1.188 0-2.082-.548-2.673-1.653-.592-1.105-.919-2.82-.98-5.152l-6.487 1.09c.153 3.905 1.081 6.785 2.787 8.646.985 1.075 2.255 1.836 3.813 2.287h7.256c.561-.177 1.097-.406 1.603-.68 1.443-.786 2.56-1.866 3.357-3.246.791-1.373 1.184-2.94 1.184-4.694 0-2.268-.496-4.24-1.485-5.918" mask="url(#2t3ise6tbf)"/>
            </g>
        </g>
    </g>
</svg>
