<svg xmlns="http://www.w3.org/2000/svg" width="88" height="31" viewBox="0 0 88 31">
    <g fill="none" fill-rule="evenodd">
        <g fill="#FEFEFE">
            <g>
                <path d="M22.142 23.62c.928-2.84 1.436-5.097 2.54-10.98 1.738-.147 2.608-.237 4.347-.439-1.974 8.517-2.857 11.361-4.414 14.565l-3.556-.265c-2.13-2.336-3.244-3.836-5.567-7.154-.99 3.092-1.438 4.163-2.234 6.546-1.422-.114-2.133-.172-3.555-.29-3.517-4.442-5.378-8.347-9.307-14.506 1.782.456 2.673.644 4.455.952 2.423 4.873 3.591 7.282 5.84 10.443.768-2.64 1.201-4.175 2.161-9.653 1.481.07 2.222.084 3.702.083 2.332 5.754 3.45 7.75 5.588 10.697M46.319 14.982c-.27-.677-.653-1.21-1.152-1.61-.497-.399-1.093-.65-1.785-.764-.691-.114-1.46-.055-2.304.178-.844.232-1.611.596-2.292 1.093-.683.497-1.26 1.075-1.731 1.726-.47.651-.817 1.345-1.043 2.069-.226.724-.32 1.448-.288 2.177.033.727.2 1.373.5 1.96.299.588.698 1.075 1.197 1.48.499.404 1.078.72 1.742.947.663.226 1.382.323 2.157.262.819-.067 1.555-.287 2.209-.688.654-.402 1.218-.936 1.689-1.6.472-.663.836-1.427 1.09-2.27.256-.841.39-1.718.4-2.607.008-.887-.12-1.674-.39-2.353m3.747 5.96c-.517 1.526-1.201 2.904-2.05 4.043-.848 1.142-1.845 1.998-2.99 2.552-1.146.553-2.382.722-3.718.62-1.314-.1-2.541-.436-3.69-.898-1.15-.46-2.158-.99-3.033-1.602-.874-.61-1.583-1.273-2.122-2.07-.54-.8-.854-1.706-.934-2.805-.08-1.1.09-2.25.527-3.476.435-1.223 1.075-2.415 1.922-3.519.847-1.103 1.879-2.08 3.094-2.899 1.214-.819 2.56-1.389 4.023-1.736 1.463-.345 2.817-.426 4.046-.27 1.23.16 2.282.511 3.156 1.091.872.582 1.535 1.363 1.993 2.407.459 1.045.66 2.38.62 3.918-.041 1.539-.326 3.119-.844 4.645M58.693 28.74c-1.608-.119-2.412-.157-4.02-.25.376-11.896.564-16.439.94-22.346 1.753-.363 2.63-.605 4.383-.747-.117 1.28-.176 2.007-.294 3.634.686-1.442 1.612-2.458 2.779-3.192 1.166-.735 2.596-1.069 4.268-1.05-.181 1.322-.271 2.058-.452 3.683l-.246.007c-.94.03-1.813.215-2.613.562-.802.35-1.506.786-2.113 1.564-.608.78-1.094 1.725-1.46 2.895-.367 1.171-.591 2.55-.676 4.234-.2 3.908-.298 6.11-.496 11.005M84.583 30.916c-1.844-.183-2.767-.27-4.611-.442-1.536-4.832-2.346-7.652-4.047-12.833-1.174 1.375-1.754 2.102-2.903 3.625-.29 3.284-.435 4.991-.725 8.532-1.608-.134-2.411-.2-4.02-.328.719-9.74 1.208-19.468 3.004-29.078L75.804.05C74.966 4.08 74.547 5 73.709 13.78c3.48-4.214 5.279-4.657 8.992-7.338 2.112.45 3.169.722 5.28 1.386-3.608 2.793-5.362 2.948-8.766 6.27 2.3 7.081 3.375 11.127 5.368 16.82" transform="translate(-1036 -657) translate(1036 657)"/>
            </g>
        </g>
    </g>
</svg>
