<?xml-stylesheet rel="stylesheet" href="https://fonts.googleapis.com/css2?family=Oswald:wght@200;300;400;500;600;700&display=swap" ?>  
<svg xmlns="http://www.w3.org/2000/svg" xmlns:xlink="http://www.w3.org/1999/xlink" width="623" height="654" viewBox="0 0 623 654">
    <defs>
        <path id="q5hac6x7ja" d="M0 0.476L621.275 0.476 621.275 603.365 0 603.365z"/>
        <path id="0j6ufhhjgc" d="M0.016 0.044L14.528 0.044 14.528 10.428 0.016 10.428z"/>
    </defs>
    <g fill="none" fill-rule="evenodd">
        <g>
            <g>
                <g>
                    <g transform="translate(-649 -759) translate(649 759) translate(.856 28)">
                        <mask id="dg9xwtpw4b" fill="#fff">
                            <use xlink:href="#q5hac6x7ja"/>
                        </mask>
                        <path fill="#1C1C1C" d="M218.854 565.738c-6.068-5.13-15.376-3.51-19.922-10.6 7.396 1.513 13.847 5.251 21.122 6.877-.1 1.367-1.786 2.042-1.2 3.723M97.977 100.942c-4.915 6.051-9.68 12.202-13.124 19.244-.799 1.634-2.036 2.783-3.404 3.894-1.17.95-2.966 1.542-2.313 3.745.118.398-.534 1.32-1.04 1.56-4.297 2.034-5.111 5.878-5.475 10.033-.099 1.129-.884 1.943-1.907 2.421-.697.326-1.324.072-1.725-.57-.71-1.135.076-1.98.54-2.948 1.093-2.28 3.947-3.623 3.824-7.544-4.016 3.829-6.062 8.23-9.435 11.57 1.313-4.665 4.25-8.628 7.544-11.688 4.64-4.308 7.201-9.85 10.855-14.708 4.039-5.367 8.097-10.704 12.979-15.35 1.123-1.07 2-2.563 3.884-2.665.88 1.554-.547 2.198-1.203 3.006m522.286 129.7c-1.404-1.212-2.059.297-2.952 1-1.221.963-2.632 2.6-4.072.686-1.62-2.153-2.92-.894-4.412.423.072-3.03 1.136-4.782 3.47-5.93 1.415-.698 2.665-1.806 3.841-2.888.976-.899 2.13-2.121 1.305-3.475-.714-1.175-2.33-.787-3.353-.317-3.196 1.468-4.08.152-3.968-2.857.03-.781-.252-1.587-.47-2.36-.25-.884-.318-2.083-1.386-2.267-1.415-.243-1.22 1.095-1.407 1.933-.28 1.265-.822 2.01-2.229 1.342-1.357-.646-1.274-1.642-.477-2.622 4.717-5.806 2.575-11.35-.762-16.72-1.203-1.937-1.522-3.733-1.453-6.005.089-2.959.113-6.45-2.895-8.214-3.02-1.773-4.779-5.687-3.825-9.069 1.051-3.736 3.81-6.403 5.49-9.722.456-.902.657-1.813-.147-2.59-.565-.543-1.357-.442-1.817.072-1.649 1.842-2.496 1.016-3.366-.755-.412-.836-1.549-.872-2.117-.278-2.413 2.521-6.184 3.93-6.684 8.113-1.322-.934-1.195-2.395-1.552-3.62-.656-2.25-1.887-4.827 2.353-4.77 1.016.014 1.899-.771 1.814-1.813-.31-3.792 1.671-7.622-.487-11.418-1.312-2.307-1.99-5.277-4.968-1.047-1.34-2.53-1.372-4.71-.332-6.879.846-1.762.388-3.31-1.002-4.304-2.449-1.75-3.364-4.39-3.43-6.94-.1-3.829-1.707-6.434-4.76-8.286-3.53-2.14-4.225-5.591-3.76-9.06.384-2.866-.573-4.694-2.022-6.954-1.559-2.433-2.646-4.547-6.044-3.448-.454.147-1.15-.691-1.783-.814-2.83-.55-6.752-2.397-8.296-1.207-3.107 2.392-3.62.018-4.866-1.309-1.97-2.094-3.236-4.888-6.853-4.973-1.337-.031-2.287-1.743-2.816-3.135-1.25-3.286-3.068-5.522-7.046-5.684-6.814-.277-12.115-4.492-15.83-9.26-2.513-3.228-3.188-3.613-6.133.224 1.332-3.635-.425-4.824-2.035-5.972-1.775-1.266-2.45.176-3.416 1.393-.815 1.027-2.066 1.11-3.145-.039-.787-.841-1.753-2.261-2.923-.933-.983 1.117.63 2.095.975 3.17.76 2.373 3.694 3.783 3.136 7.929-4.052-6.5-11.256-6.592-15.804-11.005-3.589-3.483-9.377-4.001-12.41-8.015-3.091-4.089-7.391-6.036-11.545-8.36-1.173-.656-1.842-1.227-2.114-2.582-.753-3.746-2.715-6.337-6.923-6.556-1.048-.054-2.045-.442-2.584-1.658 2.936.127 4.121-.746 2.684-3.76-.959-2.015-2.181-3.624-3.995-4.889-5.328-3.716-11.49-5.642-17.4-8.09-12.304-5.096-25.261-8.211-37.962-12.057-12.359-3.742-25.243-4.773-38.106-6.016-27.083-2.617-53.91-1.44-80.625 3.44-8.424 1.538-16.657 3.988-25.461 3.371-2.894-.202-6.245 1.987-8.094 4.595-4.467 6.304-10.717 8.429-17.767 7.23-8.464-1.438-14.9 1.974-21.089 6.796-.75.583-1.402 1.274-2.401 1.35-4.328.332-7.838 4.315-12.617 2.801-.482-.153-1.235.429-1.824.74-5.932 3.137-12.023 6.016-17.727 9.522-4.295 2.64-9.022 4.517-12.992 7.767-2.886 2.36-5.988 5.204-9.631 5.604-3.246.356-5.678 1.723-6.98 3.926-2.802 4.739-6.165 8.543-11.257 10.779-.629.276-.934 1.262-1.417 1.897-2.094 2.748-4.152 5.525-6.335 8.202-.478.587-1.557 2.082-2.084.987-1.368-2.845-3.732-.946-5.632-1.718.415-.523.82-1.032 1.224-1.543 4.229-5.33 9.943-9.012 15.126-13.228 9.116-7.413 18.007-15.206 28.941-20.087 3.785-1.69 7.413-3.84 9.25-7.98.643-1.448 1.981-2.294 3.61-2.016 2.902.497 4.84-1.26 5.927-3.26 1.288-2.367 3.39-3.495 5.419-3.68 4.118-.377 7.245-2.636 10.728-4.293 5.574-2.652 10.987-6.092 17.168-6.786 6.221-.7 10.817-4.745 16.424-6.588 1.914-.63 3.584-1.755 5.742-.931 1.326.506 2.664-.027 3.9-.58 4.957-2.218 10.23-3.23 15.538-4.139 7.413-1.269 14.82-2.574 22.23-3.868 1.058-.185 2.287-.274 2.37-1.681.033-.586-.254-1.387-.683-1.763-1.138-.994-2.005.132-2.807.7-1.699 1.198-3.604 2.186-5.587 2.072-6.064-.348-11.617 1.783-17.348 3.087-5.107 1.162-10.224 2.29-15.355 3.34-.967.197-3.091.983-2.59-.919.984-3.728-1.377-2.018-2.36-1.577-3.937 1.768-7.96 3.133-12.182 4.104-2.274.522-4.133 2.133-6.054 3.683-3.13 2.525-6.14 7.097-11.36 3.373-.41-.293-1.292.052-1.95.132-2.743.332-4.294-.037-6.839-1.47-.405-.228-1.035-.077-1.561-.066-2.577.048-5.053.464-7.402 1.64-3.602 1.8-7.149 3.817-10.933 5.118-3.051 1.05-5.046 3.6-7.846 4.662-1.803.684-3.538.565-3.866 3.104-.152 1.187-.725 1.129-2.982.367-.311-.105-.854.001-1.09.222-5.898 5.494-14.323 7.398-19.684 13.424-1.997 2.246-5.428 2.103-6.56 4.802-1.011 2.414-3.026 3.643-4.699 5.347-5.993 6.1-13.028 11.058-18.533 17.755-2.577 3.135-5.26 6.676-9.207 8.685-1.269-3.413-1.621-6.454 1.179-9.08.362-.342.564-.927.686-1.435.23-.958.118-2.007-.673-2.587-1.107-.81-1.678.382-2.272.992-1.668 1.711-3.267 3.489-4.878 5.256-.445.49-1.055 1.606-.728 1.671 4.025.807-3.34 5.748 2.17 5.86-.018.133-.02.27-.057.397-1.252 4.322-2.581 8.763-6.038 11.76-1.714 1.485-3.283 2.997-4.854 4.628-4.16 4.318-6.332 9.962-9.986 14.502-7.057 8.765-12.862 18.171-17.162 28.532-.845 2.037-2.142 3.64-3.806 5.095-2.467 2.156-4.424 5.13-4.827 8.116-.75 5.55-2.641 10.35-5.931 14.787-1.926 2.596-1.36 6.845-5.401 8.133-.322.103-.388 1.226-.448 1.886-.84 9.277-6.303 17.237-7.44 26.55-.394 3.222-2.88 6.5-3.637 10.073-.608 2.863-.47 5.598-3.9 7.75-2.313 1.453-3.005 5.754-3.05 9.426-.06 5.127-1.321 5.642-5.801 3.208-.502 3.53.145 7.145-1.206 10.362-3.163 7.53.945 15.964-3.032 23.392-.373.697-.136 2.053.781 2.517 1.222.62.637-1.672 1.935-1.365.505 1.522.422 3.071.046 4.65-3.057-1.105-4.592-.706-4.41 1.439.328 3.889-1.609 7.298-1.752 11.065-.124 3.24 1.48 6.324.38 9.667C-.364 304.67.013 309.785.098 314.984c.123 7.596-.398 15.077 4.421 21.628 1.1 1.496 1.24 3.496 2.764 4.842.966.853.93 1.696-.42 2.862-3.127 2.701-3.236 6.26-1.762 10.33 1.73-3.355 1.73-3.355 4.934-5.654-3.747 5.558.262 9.167 1.428 13.11 1.509 5.1 2.971 10.268 4.747 15.327 2.832 8.068 3.586 16.864 8.665 24.147.44.63.5 1.254-.124 1.782-.621.527-1.514.44-1.714-.197-.764-2.432-3.316-3.85-3.596-6.506-.092-.873.294-2.239-1.212-1.89-1.135.263-1.54 1.477-1.22 2.636 1.799 6.534 2.034 13.418 5.014 19.724 1.406 2.974 4.16 5.092 5.156 7.888 2.718 7.63 8.002 13.655 11.94 20.491 1.25 2.169 3.09 3.745 4.13 6.443 1.448 3.754 3.692 7.38 5.336 11.191.647 1.498 1.407 2.9 2.61 4.022 6.924 6.449 12.907 13.732 18.65 21.207 1.858 2.416 2.234 5.7 4.368 8.071 11.42 12.703 22.386 25.88 37.259 34.898.853.517 1.037 1.347 1.511 1.996 1.433 1.968 3.288 3.966 6.146 3.172.636-.177.957-1.729 2.1-.86 1.07.811-.479 1.307-.395 2.026.133 1.146.3 2.287.562 4.252-10.277-7.685-19.907-15.155-29.137-23.185-9.198-8.004-15.912-18.657-26.61-25.264-.66 1.513.278 2.144.815 2.79 5.048 6.083 9.905 12.351 15.288 18.127 14.509 15.57 30.573 29.447 47.806 41.908 9.113 6.589 18.181 13.267 28.404 18.273 4.471 2.19 9.35 3.222 13.617 5.607 7.03 3.928 12.774 9.756 21.062 11.935 9.575 2.518 18.966 5.754 28.759 7.45 1.282.224 3.046 1.207 3.55-1.185.177-.842 1.172-1.76-.032-2.499-1.29-.79-2.427-1.101-4.003.024-1.758 1.255-3.85 1.123-4.861-1.373-.373-.92-.864-1.86-1.77-2.07-2.987-.692-1.69-2.171-.826-4.449 1.747 4.153 5.545 1.88 7.849 3.705.624.494 1.624.912 2.148.086.791-1.248-.547-1.714-1.288-1.98-4.615-1.652-9-4.175-14.107-4.017-1.028 2.336 2.523 1.967 2.41 4.39-5.638-4.213-12.34-5.075-17.69-9.017-3.832-2.823-8.7-4.243-12.55-7.049-3.83-2.791-7.27-6-12.108-6.99-5.126-1.048-6.868-5.99-10.502-8.836.752-.276 1.43-.337 1.69-.037 4.003 4.611 11.077 4.175 14.912 9.064.275.35.988.512 1.493.502 5.504-.123 9.728 2.958 14.438 5.155 4.745 2.213 8.3 6.424 13.595 7.52 7.828 1.623 14.728 5.906 22.445 7.854 2.505.633 4.232 2.95 6.858 3.236 6.638.724 13.261 1.421 19.726 3.272 6.357 1.82 12.997 2.011 19.507 2.965 9.642 1.413 19.232 3.295 29.033 3.34 2.652.012 5.393-.565 7.578 1.708.77.8 1.82.537 2.485-.288 1.129-1.397 2.552-1.041 4.045-1.037 6.407.022 12.824.094 19.22-.207 7.05-.33 14.077-1.09 21.119-1.582 4.152-.289 7.214-3.007 11.615-4.065-1.936-1.522-3.048-.648-4.169-.55-1.99.17-4.52 1.12-5.867-.216-3.368-3.338-6.934-1.975-10.534-1.253-2.622.527-5.406 2.062-7.844 1.044-2.767-1.154-5.167-.889-7.795-.248-2.38.58-4.7 1.103-6.449-1.519-.736-1.103-2.289-1.114-3.31-.398-4.268 2.995-8.387 2.687-12.817.227-1.665-.926-3.985-1.205-5.571.68-.708.842-1.504 1.012-2.468 1.035-4.615.113-9.137-.499-13.477-2.065-4.036-1.455-9.165 2.757-12.495-2.45-.24-.376-1.266-.27-1.93-.347-7.545-.892-14.875-3.125-22.565-3.258-3.284-.057-6.871-.83-9.251-3.398-2.993-3.23-6.245-4.103-11.117-2.128 1.956-3.387-.817-4.367-2.55-6.038 2.63-.77 4.268 1.513 6.821 1.31-.464-.782-.634-1.29-.979-1.615-2.459-2.32-6.252-1.265-8.854-3.47-.575-.487-1.112.668-1.248 1.55-.51 3.3 2.121 4.593 4.054 6.431-2.4-.781-5.634.17-6.325-3.575-.152-.825-1.294-1.208-2.025-.875-4.293 1.958-7.823-.81-11.419-2.04-15.327-5.25-29.016-13.828-42.956-21.848-4.521-2.6-8.802-5.614-13.193-8.439-8.591-3.572-15.19-9.999-22.327-15.635-4.421-3.492-8.946-6.824-13.64-9.937-.326-.216-.707-.498-.84-.837-2.27-5.731-7.948-8.68-11.15-13.652-1.02-1.583-2.337-2.947-4.2-3.63-1.337-.488-2.341-1.45-2.809-2.735-1.76-4.827-4.669-8.639-9.944-10.747 2.008-1.768 3.798-2.166 5.05-.625 3.38 4.164 8.851 6.414 11.426 10.938 3.84 6.748 9.811 11.305 15.223 16.274 7.953 7.304 15.798 14.806 24.534 21.263 3.421 2.527 6.853 5.226 8.687 9.313 2.805.16 5.594.287 7.481 2.91.334.463 1.318.958 1.732.787 2.923-1.21 4.442 1.06 6.303 2.399 4.213 3.03 8.078 6.26 13.885 6.508 2.62.113 6.087.474 8.313 3.818 1.49 2.239 4.665 4.283 8.758 3.05-2.245-2.49-5.697-2.626-7.6-5.543 3.976 1.046 7.408 1.903 10.308 4.345 2.597 2.188 6.13 3.163 9.148 4.083 3.161.962 5.62 1.694 7.169 4.695.396.767 1.316 1.35 2.117 1.805 1.533.868 3.156 1.837 2.594-1.455-.217-1.273.216-2.958 1.824-3.175 1.632-.219 1.939.901 2.152 2.541.284 2.201 2.803 1.489 4.308 2.128.61.26 1.47.207 1.655-.606.4-1.764-.856-2.64-2.088-3.536-1.08-.786-2.075-1.69-3.108-2.542 5.561.586 10.446 2.48 15.244 4.497 1.762.742 3.834 1.015 5.293 2.255 2.989 2.54 7.532 3.14 11.18 1.84 2.513-.898 5.477-1.644 6.597 2.383.654 2.349 2.595 1.789 3.885.832 1.935-1.436 3.435-1.897 4.851.48.405.681 1.097.837 1.743.501 2.646-1.376 5.54-.4 8.312-.842 2.584-.41 5.946-1.404 7.73 2.239.368.752 1.427.459 2.02-.309 2.733-3.542 6.361-4.073 10.518-3.343 2.333.41 5.806 1.525 6.863-.337 1.874-3.3 4.457-2.342 6.871-2.478 6.008-.336 12.09.033 18.034-.731 9.274-1.191 18.576-2.428 27.84-3.513 11.865-1.389 23.32-4.187 34.872-6.833 2.826-.646 4.578-2.953 7.447-3.708 6.085-1.605 11.884-4.357 18.403-3.883-.04-1.682.353-2.842 2.294-3.513 3.794-1.31 7.542-2.83 11.139-4.606 6.473-3.197 12.418-7.425 20.383-6.568 2.824.304 5.949-1.057 9.047-1.314 2.214-.183 4.143-.405 5.92.964 2.17 1.672 4.574-.174 4.45-1.221-.59-4.951 3.632-5.103 6.175-6.355 1.904-.937 2.909-3.774 6.176-3.37-1.673 1.495-2.938 2.475-4.014 3.63-1.082 1.16-1.38 2.877-2.776 3.896-1.05.766-2.836 2.016-2.056 3.06 1.294 1.735 1.78 5.144 3.719 5.077 3.485-.12 5.458 3.848 8.713 2.755 2.552-.856 6.104.295 7.559-2.491 1.11-2.126 2.814-3.174 4.517-4.334 5.19-3.536 10.264-7.25 14.235-12.123 3.653-4.482 7.306-8.878 11.88-12.49 5.41-4.27 10.18-9.195 14.818-14.32 7.902-8.728 13.519-18.929 19.282-28.984 6.646-11.598 14.627-22.518 18.908-35.396 1.248-3.753 2.317-7.665 4.227-11.08 5.992-10.71 8.61-22.446 11.137-34.237.284-1.332.575-2.764-.349-4.23-1.811 1.751-1.996 3.764-2.313 5.735-.253 1.582-.004 3.936-.938 4.6-4.445 3.16-4.48 8.302-6.276 12.614-2.305 5.53-3.586 11.633-6.665 16.66-5.41 8.837-7.601 19.08-13.818 27.663-5.242 7.236-9.327 15.437-14.226 23.029-.446.692-.893 1.78-2.202 1.081 1.793-5.51 6.936-9.748 6.028-16.23-.051-.369.626-.825.932-1.262 1.985-2.837 4.22-5.534 5.893-8.544 7.274-13.088 15.519-25.688 20.61-39.899.716-1.997.76-4.393 1.916-6.045 4.68-6.68 4.712-14.706 6.38-22.145 1.157-5.165.979-10.618 3.65-15.476.834-1.519 1.796-3.268 1.428-4.963-1.686-7.777 2.547-15.015 1.697-22.846-.594-5.475 1.275-11.124 1.004-16.803-.21-4.386 2.988-7.762 3.493-12.765 2.496 6.74.52 12.94 2.828 18.745.849-2.915.837-5.829.851-8.742.042-8.559-.292-17.076 2.265-25.511 1.205-3.975 3.99-7.709 3.756-11.769-.33-5.767.84-11.163 1.9-16.677.404-2.106.446-4.402-1.267-6.076-2.128-2.08-1.022-3.896.258-5.698.53-.746 1.499-1.192 1.975-1.958.875-1.404 1.44-3.138.39-4.548-1.292-1.732-2.247.346-3.373.685-1.538.464-3.083.916-4.648 1.279-1.773.412-2.693-.88-1.516-1.865 3.704-3.094 4.095-8.93 9.27-10.762 1.372-.485 2.19-1.929 2.654-3.402.435-1.387.355-2.748-.767-3.715" mask="url(#dg9xwtpw4b)"/>
                    </g>
                    <path fill="#1C1C1C" d="M424.821 581.048c.03-.036.064-.062.094-.1l.002-.002c-.042-.004-.08-.004-.122-.006 0 .042-.002.078 0 .12l.026-.012M148.77 50c6.767-.97 13.261-3.414 18.767-8.103 1.379-1.175 1.412-2.603 1.156-4.354-.453-3.096.888-5.112 4.376-5.301 2.305-.125 4.296-.87 6.369-2.131 2.33-1.416 4.061-3.453 6.352-4.844 1.34-.813 3.862-1.078 2.82-3.575-1.107-2.649-3.364-1.48-5.284-1.152-.528.091-1.038.31-1.544.5-10.201 3.858-19.982 8.787-30.586 11.63-1.024.274-1.998.852-2.896 1.436-2.284 1.483-4.363 3.223-5.61 5.678-2.421 4.76.679 10.248 6.08 10.216M354.889 642.339c-1.451-.41-2.762-1.682-4.486-1.251-7.527 1.877-15.18.87-22.785 1.066-8.903.23-17.804.554-26.706.843-.901.028-2.083-.215-1.966 1.344.08 1.074 1.027 1.194 1.832 1.249 1.066.07 2.141.013 3.207.096 2.395.187 4.953-.085 7.532 2.995-6.25.613-11.503-1.99-17.661-.46 4.854 3.393 9.784 4.077 14.378 5.686.565.199 1.438.068 1.93-.29 5.651-4.118 11.872-.521 17.708-.836 4.262-.232 7.631.324 10.712-3.307 3.4-4.004 7.7-4.438 11.764-1.389 1.52 1.142 3.721 1.614 4.219.026 1.266-4.04 4.178-2.896 6.53-2.937 2.711-.048 4.893-.624 6.759-3.577-4.61-.3-8.656 1.956-12.967.742M105.386 96.66c1.639-3.66 4.142-6.689 6.997-9.322 12.894-11.89 27.248-21.835 41.88-31.392 2.77-1.81 5.928-3.082 8.018-5.852.515-.682 2.003-.875 1.456-2.044-.628-1.342-2.034-1.157-3.175-.756-3.237 1.142-6.462 2.352-9.21 4.51-7.761 6.092-15.533 12.173-23.259 18.31-3.47 2.757-7.783 4.637-10.826 7.498-5.84 5.49-11.185 11.726-15.072 18.954-.62 1.153-1.461 2.257-1.325 4.434 2.102-1.272 3.69-2.493 4.516-4.34" transform="translate(-649 -759) translate(649 759)"/>
                    <path fill="#1C1C1C" d="M416.128 585.885c-5.496 1.575-11.217 2.715-16.519 4.52-14.187 4.83-28.755 7.653-43.38 10.446-1.365.26-3.638.094-3.348 1.95.305 1.954 2.239.994 3.683.73 6.745-1.224 13.257-4.428 20.404-2.483.412.112 1.15-.167 1.433-.51 1.337-1.624 1.3-1.683 2.722-1.7 1.646-.018 3.192-.311 4.613-1.212 2.644-1.672 5.636-2.638 8.607-3.325 14.077-3.26 27.298-8.935 40.707-14.082 1.26-.482 2.666-1.125 2.806-3.219-5.077.801-9.344 2.994-13.726 4.845-2.06 2.54-5.072 3.2-8.002 4.04M551.538 559c-1.427 1.284-3.118 2.31-4.07 3.789-1.207 1.876-2.863 2.99-4.627 4.204-6.23 4.284-11.86 9.282-17.415 14.353-.85.777-2.078 1.9-1.347 3.01.912 1.385 2.443.128 3.674-.026.55-.067.972-.844 1.532-1.167 6.582-3.795 10.43-10.617 17.02-14.48 2.582-1.513 4.56-4.026 6.75-6.146.67-.65 1.193-1.565.406-2.444-.4-.445-1.093-.638-1.923-1.093M375.854 607.907c.069-2.307-2.707-1.735-4.175-1.842-7.58-.556-14.666 2.589-22.044 3.658-1.315.19-3.304.346-2.651 2.648.541 1.912 2.365 1.839 3.677 1.296 5.265-2.179 11.242-.562 16.361-3.627 1.288-.771 3.061-.635 4.613-.915 1.538-.093 4.14 1.46 4.22-1.218M395.971 643.083c-1.101-.277-2.19.167-2.98.937-1.767 1.725-3.639 1.501-5.889 1.382-4.843-.257-9.61.958-15.246 2.371 3.975 2.457 6.929 2.867 10.116 1.298 1.026-.505 2.647-.918 3.455-.397 2.798 1.8 4.794.236 6.952-1.246 1.104-.759 2.155-1.763 3.641-1.504.816.142 1.787.231 1.834-.95.047-1.19-.98-1.664-1.883-1.891" transform="translate(-649 -759) translate(649 759)"/>
                    <g transform="translate(-649 -759) translate(649 759) translate(195.856)">
                        <mask id="v4stt2117d" fill="#fff">
                            <use xlink:href="#0j6ufhhjgc"/>
                        </mask>
                        <path fill="#1C1C1C" d="M7.975 8.394c1.762-1.815 3.54-3.615 5.298-5.432.455-.47.86-.984 1.255-1.44C13.999-.32 12.383-.09 11.495.363 7.878 2.205 4.368 4.246.915 6.358c-.685.418-1.4 1.417-.417 2.358 2.497 2.389 4.957 2.273 7.477-.323" mask="url(#v4stt2117d)"/>
                    </g>
                    <path fill="#1C1C1C" d="M339.587 609.194c-4.417-1.289-8.487 4.405-12.706.643-1.557.339-2.95.39-3.807 1.647-.427.627-.174 1.408.304 1.96 1.138 1.307 2.145-.085 3.223-.192 1.146-.114 2.32.145 3.483.211 2.066.12 4.284.792 6.108-.57 1.973-1.472 3.871-1.36 5.952-.656.909.307 2.214 1.39 2.648-.236.388-1.458-1.078-2.223-2.137-2.61-.938-.34-2.098.087-3.068-.197" transform="translate(-649 -759) translate(649 759)"/>
                </g>
                <text fill="#FFF" font-family="'sans-serif" font-size="38" letter-spacing="-.704" transform="translate(-649 -759) translate(649 759)">
                    <tspan x="187" y="226">A tale for everyone</tspan>
                </text>
                <text fill="#FFF" font-family="'Oswald', sans-serif" font-size="38" letter-spacing="-.704" transform="translate(-649 -759) translate(649 759)">
                    <tspan x="85" y="324">A niche with tech-integrated films</tspan>
                </text>
                <text fill="#FFF" font-family="'Oswald', sans-serif" font-size="38" letter-spacing="-.704" transform="translate(-649 -759) translate(649 759)">
                    <tspan x="187" y="427">A world to explore</tspan>
                </text>
            </g>
        </g>
    </g>
</svg>
